<svg xmlns="http://www.w3.org/2000/svg" viewBox="0 0 835.02 199.53"><defs><style>.cls-1{fill:#c14472;}</style></defs><title>logo</title><g id="Capa_2" data-name="Capa 2"><g id="Capa_1-2" data-name="Capa 1"><path class="cls-1" d="M106.15,198.28a5.57,5.57,0,0,1-2.33,1,16,16,0,0,1-3,.27,9.81,9.81,0,0,1-3.61-.66,7.92,7.92,0,0,1-3-2,9.47,9.47,0,0,1-2-3.45,15.1,15.1,0,0,1-.74-5,14,14,0,0,1,.82-5.1,9.74,9.74,0,0,1,2.14-3.44,8.31,8.31,0,0,1,3-1.95,9.65,9.65,0,0,1,3.38-.61,18.77,18.77,0,0,1,3,.2,9,9,0,0,1,2,.54l-.61,2.27a9.46,9.46,0,0,0-4.2-.74,6.89,6.89,0,0,0-2.48.46,5.84,5.84,0,0,0-2.2,1.5,7.79,7.79,0,0,0-1.55,2.73,13.07,13.07,0,0,0-.58,4.14,12.55,12.55,0,0,0,.55,3.87,8.13,8.13,0,0,0,1.52,2.76,6.32,6.32,0,0,0,2.27,1.65,7.16,7.16,0,0,0,2.84.55,9.45,9.45,0,0,0,2.4-.27,6.7,6.7,0,0,0,1.74-.71Z"/><path class="cls-1" d="M134.46,177.91c.77-.14,1.67-.25,2.68-.33s1.94-.13,2.77-.13a11.73,11.73,0,0,1,2.69.31,6.19,6.19,0,0,1,2.24,1,5.26,5.26,0,0,1,1.55,1.84,6.12,6.12,0,0,1,.58,2.76,5.93,5.93,0,0,1-1.38,4.08,6.72,6.72,0,0,1-3.5,2.09l1.47,1.13,5.34,8.49h-3L140,189.9l-3-.46v9.72h-2.54Zm5.52,1.75h-.83c-.29,0-.56,0-.83,0l-.75.06a3.1,3.1,0,0,0-.57.09v7.92h2.39a5.62,5.62,0,0,0,3.5-1,3.79,3.79,0,0,0,1.38-3.25,3.6,3.6,0,0,0-1.14-2.73A4.4,4.4,0,0,0,140,179.66Z"/><path class="cls-1" d="M177.24,177.7h11.68V180h-9.14v7h8.37v2.27h-8.37v7.64h9.29v2.26H177.24Z"/><path class="cls-1" d="M228.4,193.22h-7.87l-2.14,5.94h-2.54l8.12-21.8h1.17l8.15,21.8H230.6ZM221.35,191h6.29l-2.38-6.53-.77-3.26h0l-.76,3.32Z"/><path class="cls-1" d="M272.49,180H265.8v19.19h-2.54V180h-6.69V177.7h15.92Z"/><path class="cls-1" d="M300.76,177.7h2.55v21.46h-2.55Z"/><path class="cls-1" d="M337.5,185.12l-1.66-3.1h-.12l.31,3.1v14h-2.39v-21.8H335l10.27,14.32,1.59,2.95H347l-.34-2.95v-14h2.39v21.8h-1.35Z"/><path class="cls-1" d="M386.05,188.46h7.2v9.45a5.91,5.91,0,0,1-1.18.67,9.44,9.44,0,0,1-1.47.52,11.75,11.75,0,0,1-1.63.33,13.12,13.12,0,0,1-1.64.1,10.44,10.44,0,0,1-3.77-.66,7.82,7.82,0,0,1-3-2,9.5,9.5,0,0,1-2-3.47,15.6,15.6,0,0,1-.7-4.95,13.58,13.58,0,0,1,.86-5.09,9.87,9.87,0,0,1,2.24-3.45,8.6,8.6,0,0,1,3.09-1.95,10.15,10.15,0,0,1,3.44-.61,19.18,19.18,0,0,1,3,.2,9.12,9.12,0,0,1,2,.54l-.65,2.27a9.46,9.46,0,0,0-4.2-.74,7.88,7.88,0,0,0-2.56.44,5.9,5.9,0,0,0-2.28,1.49,7.94,7.94,0,0,0-1.66,2.73,11.79,11.79,0,0,0-.64,4.17,13.13,13.13,0,0,0,.52,3.93,7.59,7.59,0,0,0,1.45,2.74,5.78,5.78,0,0,0,2.25,1.63,7.64,7.64,0,0,0,2.87.53,6.72,6.72,0,0,0,3.33-.76v-6l-5-.62Z"/><path class="cls-1" d="M467.53,199.16h-12.7V177.7h2.55v19.2h10.15Z"/><path class="cls-1" d="M495.22,177.7H506.9V180h-9.13v7h8.37v2.27h-8.37v7.64h9.29v2.26H495.22Z"/><path class="cls-1" d="M546.38,193.22h-7.87l-2.14,5.94h-2.54l8.13-21.8h1.16l8.16,21.8h-2.7Zm-7-2.21h6.29l-2.38-6.53-.76-3.26h0l-.77,3.32Z"/><path class="cls-1" d="M578.66,177.7c.39-.06.83-.11,1.31-.14s1-.05,1.5-.06l1.53,0,1.4,0a11.43,11.43,0,0,1,4.46.8,8.18,8.18,0,0,1,3.11,2.22,9.22,9.22,0,0,1,1.83,3.42,16,16,0,0,1,0,8.57A10.21,10.21,0,0,1,592,196a9,9,0,0,1-3.19,2.49,11.07,11.07,0,0,1-4.76.93h-1.27c-.52,0-1.06,0-1.61-.07l-1.53-.07a7.89,7.89,0,0,1-1-.09Zm5.8,2h-.87c-.32,0-.63,0-.94,0l-.84.06c-.26,0-.46.05-.6.07v17.17a4.77,4.77,0,0,0,.58,0l.89,0,.89,0h.58a8,8,0,0,0,3.61-.73,6.35,6.35,0,0,0,2.33-2,8.15,8.15,0,0,0,1.24-2.85,14.72,14.72,0,0,0,.37-3.33,14.19,14.19,0,0,0-.34-3,7.94,7.94,0,0,0-1.17-2.75,6.55,6.55,0,0,0-2.22-2A7.12,7.12,0,0,0,584.46,179.72Z"/><path class="cls-1" d="M623.25,177.7h11.69V180H625.8v7h8.37v2.27H625.8v7.64h9.29v2.26H623.25Z"/><path class="cls-1" d="M664.22,177.91c.78-.14,1.68-.25,2.69-.33s1.93-.13,2.77-.13a11.73,11.73,0,0,1,2.69.31,6.14,6.14,0,0,1,2.23,1,5.06,5.06,0,0,1,1.55,1.84,6.73,6.73,0,0,1-.79,6.84,6.72,6.72,0,0,1-3.5,2.09l1.47,1.13,5.34,8.49h-3l-5.92-9.26-3-.46v9.72h-2.55Zm5.52,1.75h-.82c-.29,0-.57,0-.83,0l-.75.06a3.1,3.1,0,0,0-.57.09v7.92h2.39a5.62,5.62,0,0,0,3.5-1,3.79,3.79,0,0,0,1.38-3.25,3.6,3.6,0,0,0-1.14-2.73A4.43,4.43,0,0,0,669.74,179.66Z"/><path class="cls-1" d="M716.7,193.71a2.94,2.94,0,0,0-.77-2.1,7.45,7.45,0,0,0-1.92-1.45c-.77-.41-1.6-.81-2.5-1.18a13.25,13.25,0,0,1-2.5-1.33,7.16,7.16,0,0,1-1.91-1.93,5.13,5.13,0,0,1-.77-2.93,4.93,4.93,0,0,1,1.75-4,7.5,7.5,0,0,1,5-1.47,18.71,18.71,0,0,1,3.4.28,9.2,9.2,0,0,1,2.39.7l-.76,2.27a10.56,10.56,0,0,0-2.07-.66,13.78,13.78,0,0,0-3.09-.32,4.42,4.42,0,0,0-3,.9,2.87,2.87,0,0,0-.25,4.13,7.6,7.6,0,0,0,1.92,1.42c.76.42,1.6.84,2.5,1.25a15.58,15.58,0,0,1,2.5,1.42,7.53,7.53,0,0,1,1.91,1.95,5,5,0,0,1,.77,2.82,6,6,0,0,1-.49,2.49,5.33,5.33,0,0,1-1.44,1.9,6.65,6.65,0,0,1-2.3,1.22,10,10,0,0,1-3.07.43,16.77,16.77,0,0,1-3.8-.35,10.45,10.45,0,0,1-2.33-.78l.86-2.27a9.81,9.81,0,0,0,2.08.76,11.82,11.82,0,0,0,3.1.37,8.27,8.27,0,0,0,1.9-.2,4.16,4.16,0,0,0,1.53-.64,3.34,3.34,0,0,0,1-1.12A3.12,3.12,0,0,0,716.7,193.71Z"/><path class="cls-1" d="M556.67,4.06c20.27,0,40.25-1,60.09.33,14.06.92,25.58,8.42,30.07,22.81s1.06,27.46-10.66,38.3c13,7.26,18,18.63,17.22,33-.94,18.36-15,32.32-35.28,33.21-18.77.81-37.59.21-56.39.23h-5.05Zm31.59,99.85c7.47,0,14.43.34,21.34-.1,6.7-.43,10.89-5,11.26-11.15.39-6.6-2.7-11.57-9.56-12.39-7.53-.89-15.25-.2-23-.2Zm.13-49.69c7.26-.55,13.85-.53,20.22-1.71,5-.93,7.64-4.93,7.69-10.22s-3-9.24-7.86-10c-6.5-1.08-13.23-.78-20.05-1.07Z"/><path class="cls-1" d="M833.74,17.69C829.6,26.47,825.59,35,821.31,44.1c-2.19-1.23-4.16-2.26-6-3.41-12.52-7.6-26-11.45-40.51-8.27-19.65,4.3-30.31,23-25.77,44.05,4.11,19,21.67,30.66,41,27.13.76-.14,1.5-.41,2.25-.6,16.26-4.28,13.44-2.59,13-18.7h-23.8c.62-9.18,1.19-17.59,1.78-26.3h51.31c.17,1.58.45,3.06.46,4.53,0,15.71.14,31.42-.11,47.12a10.44,10.44,0,0,1-2.84,7c-23.77,21-68,25.65-93.95,3.59-13.26-11.3-19.7-26.1-21.53-43-1.92-17.8.79-34.78,10.94-50S752.43,3.75,770.25,1C793.63-2.58,814.62,3.44,833.74,17.69Z"/><path class="cls-1" d="M0,131.43V4.68c.36-.3.66-.75,1-.75C22.05,4.25,43.33,3,64.2,5.36c26.6,3,45.38,25.42,47.76,52.3,1.71,19.43-1.33,37.46-14.09,52.91-11.45,13.86-26.8,20.31-44.25,21.11-17,.77-34.12.19-51.18.18A15,15,0,0,1,0,131.43ZM32.07,34.22v67.17c15.9.38,32.3,2.91,41.94-13.45,7.82-13.26,8.2-27.51.22-40.83C64.39,30.7,47.78,34.22,32.07,34.22Z"/><path class="cls-1" d="M481.54,131.6H453.69c0-14.21.05-28.11,0-42A89.82,89.82,0,0,0,453,77.42c-1-6.87-5.23-10.62-11.55-10.75s-10.53,3.15-12,10.15a42.18,42.18,0,0,0-.76,8.63c-.07,15.27,0,30.54,0,46.13H399.49c-.09-1.47-.24-2.77-.24-4.07,0-26.75.11-53.51-.12-80.27,0-4.65,1.53-6,5.9-6.19,6.37-.29,12.7-1.25,19.82-2,.78,3.09,1.61,6.33,2.59,10.19,7.53-6.4,15.72-10.5,25.35-10.29s17.48,4.47,24.07,11.59c1.89-1.57,3.59-3.14,5.44-4.51,10.53-7.82,21.92-9.27,34-4.17,11.87,5,18.51,14.7,19,27,.91,20.69.25,41.45.25,62.61H506.42v-6c0-14.15.14-28.31-.11-42.46a26.13,26.13,0,0,0-2.3-10.6c-2.48-5.18-7.45-6.67-12.84-5.58-5.88,1.2-9,5.47-9.18,11.22-.37,15.5-.33,31-.45,46.51C481.53,126.88,481.54,129.15,481.54,131.6Z"/><path class="cls-1" d="M288.49,96.9H227c3.32,17,22.84,20.14,50.7,8l8.57,17.91c-21.4,15.7-53.08,16.15-71.86,1.17-15.95-12.72-21.07-38.66-11.76-59.54,8-18,28.62-28.53,49.09-25.1C279.5,44,296.09,69.73,288.49,96.9ZM261.62,77.8c0-8.26-5.57-13.86-14.15-14.56-11-.91-19.22,4.72-20.84,14.56Z"/><path class="cls-1" d="M351.46,125.17c-8.88,6.69-19.17,10.91-31.27,9.4-15.27-1.9-24.42-11.28-25.31-26.16-.76-12.58,8.59-24,23.14-26.25,9.87-1.53,20.06-1.09,30.1-1.53.95,0,1.89-.11,2.77-.16,1.76-9.23-2.7-16.25-11.67-16-7.5.2-15,2.88-22.39,4.66-2,.47-3.79,1.68-6.12,2.75-3-6.23-6-12-8.61-18-.42-1,.6-3.43,1.64-4C321.93,39,341.11,34.7,361.3,43.41c12,5.15,19.07,15,19.49,28.05.63,19.91.16,39.86.16,60.43-7.82,0-15.57.48-23.19-.3C355.54,131.37,353.68,127.55,351.46,125.17Zm-.19-29.54c-6.83.44-13.37.5-19.8,1.39-4.82.66-7.38,4.21-7.06,9.11.34,5.29,3.93,7.73,8.84,8.3C344.56,115.74,352.1,108.37,351.27,95.63Z"/><path class="cls-1" d="M700.62,131.69H669.56V4.06h31.06Z"/><path class="cls-1" d="M156.2,131.67h-29V42.45L152.5,39l2.67,14.1C165,40.7,177,36.72,191.89,40.15c-.94,10.11-1.85,19.85-2.8,30-4.28,0-8.11-.17-11.92,0-10.65.59-18.81,7.09-19.87,17.62-1.18,11.71-.81,23.58-1.09,35.37C156.15,125.85,156.2,128.52,156.2,131.67Z"/></g></g></svg>